<svg width="1920" height="1080" viewBox="0 0 1920 1080" xmlns="http://www.w3.org/2000/svg"><rect width="1920" height="1080" fill="#df6688"/><path d="M 0,1080 C 0,1080 0,216 0,216 C 106.01656848306334,264.6244477172312 212.03313696612668,313.24889543446244 316,296 C 419.9668630338733,278.75110456553756 521.8840206185566,195.6288659793814 595,197 C 668.1159793814434,198.3711340206186 712.4307805596466,284.23564064801184 782,294 C 851.5692194403534,303.76435935198816 946.3928571428571,237.42857142857142 1048,220 C 1149.607142857143,202.57142857142858 1257.9977908689248,234.0500736377025 1345,251 C 1432.0022091310752,267.9499263622975 1497.6159793814434,270.37113402061857 1617,260 C 1736.3840206185566,249.62886597938143 1909.538291605302,226.46539027982328 1969,217 C 2028.461708394698,207.53460972017672 1974.230854197349,211.76730486008836 1920,216 C 1920,216 1920,1080 1920,1080 Z" fill="#3d1053" opacity="0.12"/><path d="M 0,1080 C 0,1080 0,432 0,432 C 84.375,408.7509204712813 168.75,385.5018409425626 264,369 C 359.25,352.4981590574374 465.375,342.74355670103097 563,358 C 660.625,373.25644329896903 749.7500000000001,413.5239322533137 826,416 C 902.2499999999999,418.4760677466863 965.625,383.1607142857143 1070,392 C 1174.375,400.8392857142857 1319.75,453.8332106038291 1422,472 C 1524.25,490.1667893961709 1583.3750000000002,473.50644329896915 1679,453 C 1774.6249999999998,432.49355670103085 1906.7500000000002,408.14101620029453 1953,404 C 1999.2499999999998,399.85898379970547 1959.625,415.92949189985274 1920,432 C 1920,432 1920,1080 1920,1080 Z" fill="#3d1053" opacity="0.24"/><path d="M 0,1080 C 0,1080 0,648 0,648 C 89.7595729013255,640.7816642120765 179.519145802651,633.5633284241532 267,634 C 354.480854197349,634.4366715758468 439.68298969072157,642.528350515464 543,631 C 646.3170103092784,619.471649484536 767.7488954344626,588.323269513991 851,569 C 934.2511045655374,549.676730486009 979.3214285714284,542.1785714285716 1060,578 C 1140.6785714285716,613.8214285714284 1256.9653902798234,692.9624447717231 1351,705 C 1445.0346097201766,717.0375552282769 1516.8170103092784,661.9716494845361 1611,663 C 1705.1829896907216,664.0283505154639 1821.7665684830633,721.1509572901326 1877,728 C 1932.2334315169367,734.8490427098674 1926.1167157584682,691.4245213549336 1920,648 C 1920,648 1920,1080 1920,1080 Z" fill="#3d1053" opacity="0.36"/><path d="M 0,1080 C 0,1080 0,864 0,864 C 91.09941089837997,829.3910162002945 182.19882179675994,794.7820324005891 279,812 C 375.80117820324006,829.2179675994109 478.30412371134025,898.2628865979381 557,905 C 635.6958762886597,911.7371134020619 690.5846833578793,856.1664212076582 789,849 C 887.4153166421207,841.8335787923418 1029.357142857143,883.0714285714288 1140,895 C 1250.642857142857,906.9285714285712 1329.9867452135495,889.5478645066273 1395,864 C 1460.0132547864505,838.4521354933727 1510.6958762886595,804.7371134020618 1614,808 C 1717.3041237113405,811.2628865979382 1873.2297496318117,851.5036818851252 1933,867 C 1992.7702503681883,882.4963181148748 1956.3851251840942,873.2481590574374 1920,864 C 1920,864 1920,1080 1920,1080 Z" fill="#3d1053" opacity="0.48"/></svg>