<svg width="1920" height="1080" viewBox="0 0 1920 1080" xmlns="http://www.w3.org/2000/svg"><rect width="1920" height="1080" fill="#68abdf"/><path d="M 0,1080 C 0,1080 0,180 0,180 C 111.45128205128205,174.94358974358974 222.9025641025641,169.88717948717948 332,191 C 441.0974358974359,212.11282051282052 547.8410256410258,259.39487179487185 649,241 C 750.1589743589742,222.60512820512818 845.7333333333331,138.53333333333333 952,135 C 1058.2666666666669,131.46666666666667 1175.2256410256412,208.47179487179488 1299,233 C 1422.7743589743588,257.5282051282051 1553.3641025641025,229.57948717948716 1658,212 C 1762.6358974358975,194.42051282051284 1841.3179487179486,187.21025641025642 1920,180 C 1920,180 1920,1080 1920,1080 Z" fill="#103d51" opacity="0.09999999999999999"/><path d="M 0,1080 C 0,1080 0,360 0,360 C 93.4974358974359,358.43589743589746 186.9948717948718,356.87179487179486 290,352 C 393.0051282051282,347.12820512820514 505.5179487179487,338.94871794871796 601,343 C 696.4820512820513,347.05128205128204 774.9333333333334,363.3333333333333 904,378 C 1033.0666666666666,392.6666666666667 1212.748717948718,405.71794871794873 1338,406 C 1463.251282051282,406.28205128205127 1534.071794871795,393.79487179487177 1622,384 C 1709.928205128205,374.20512820512823 1814.9641025641026,367.1025641025641 1920,360 C 1920,360 1920,1080 1920,1080 Z" fill="#103d51" opacity="0.19999999999999998"/><path d="M 0,1080 C 0,1080 0,540 0,540 C 100.94871794871796,572.351282051282 201.8974358974359,604.7025641025641 298,590 C 394.1025641025641,575.2974358974359 485.35897435897436,513.5410256410255 600,501 C 714.6410256410256,488.45897435897444 852.6666666666665,525.1333333333334 972,537 C 1091.3333333333335,548.8666666666666 1191.974358974359,535.925641025641 1278,530 C 1364.025641025641,524.074358974359 1435.4358974358975,525.1641025641026 1540,528 C 1644.5641025641025,530.8358974358974 1782.2820512820513,535.4179487179488 1920,540 C 1920,540 1920,1080 1920,1080 Z" fill="#103d51" opacity="0.3"/><path d="M 0,1080 C 0,1080 0,720 0,720 C 120.51538461538462,733.7025641025641 241.03076923076924,747.4051282051281 353,764 C 464.96923076923076,780.5948717948719 568.3923076923077,800.0820512820513 653,779 C 737.6076923076923,757.9179487179487 803.4000000000001,696.2666666666667 913,678 C 1022.5999999999999,659.7333333333333 1176.0076923076922,684.851282051282 1286,684 C 1395.9923076923078,683.148717948718 1462.5692307692307,656.3282051282051 1561,658 C 1659.4307692307693,659.6717948717949 1789.7153846153847,689.8358974358974 1920,720 C 1920,720 1920,1080 1920,1080 Z" fill="#103d51" opacity="0.39999999999999997"/><path d="M 0,1080 C 0,1080 0,900 0,900 C 115.03076923076924,876.0102564102564 230.06153846153848,852.0205128205127 333,874 C 435.9384615384615,895.9794871794873 526.7846153846154,963.9282051282051 642,964 C 757.2153846153846,964.0717948717949 896.7999999999997,896.2666666666668 1006,888 C 1115.2000000000003,879.7333333333332 1194.0153846153848,931.0051282051281 1301,935 C 1407.9846153846152,938.9948717948719 1543.1384615384616,895.7128205128205 1651,882 C 1758.8615384615384,868.2871794871795 1839.4307692307693,884.1435897435897 1920,900 C 1920,900 1920,1080 1920,1080 Z" fill="#103d51" opacity="0.49999999999999994"/></svg>