<svg width="1920" height="1080" viewBox="0 0 1920 1080" xmlns="http://www.w3.org/2000/svg"><rect width="1920" height="1080" fill="#68df7b"/><path d="M 0,1080 C 0,1080 0,180 0,180 C 125.15128205128207,185.72307692307692 250.30256410256413,191.44615384615386 365,192 C 479.69743589743587,192.55384615384614 583.9410256410257,187.93846153846155 679,190 C 774.0589743589743,192.06153846153845 859.9333333333332,200.79999999999998 945,218 C 1030.0666666666668,235.20000000000002 1114.3256410256413,260.8615384615385 1227,243 C 1339.6743589743587,225.1384615384615 1480.7641025641026,163.75384615384615 1601,146 C 1721.2358974358974,128.24615384615385 1820.6179487179488,154.12307692307692 1920,180 C 1920,180 1920,1080 1920,1080 Z" fill="#145110" opacity="0.09999999999999999"/><path d="M 0,1080 C 0,1080 0,360 0,360 C 97.33333333333331,319.7692307692308 194.66666666666663,279.53846153846155 290,300 C 385.33333333333337,320.46153846153845 478.66666666666674,401.6153846153846 605,404 C 731.3333333333333,406.3846153846154 890.6666666666667,330 1010,312 C 1129.3333333333333,294 1208.6666666666665,334.38461538461536 1312,338 C 1415.3333333333335,341.61538461538464 1542.6666666666667,308.46153846153845 1648,306 C 1753.3333333333333,303.53846153846155 1836.6666666666665,331.7692307692308 1920,360 C 1920,360 1920,1080 1920,1080 Z" fill="#145110" opacity="0.19999999999999998"/><path d="M 0,1080 C 0,1080 0,540 0,540 C 110.46410256410257,556.1589743589743 220.92820512820515,572.3179487179488 336,566 C 451.07179487179485,559.6820512820512 570.7512820512821,530.8871794871795 675,513 C 779.2487179487179,495.1128205128205 868.0666666666666,488.1333333333333 966,492 C 1063.9333333333334,495.8666666666667 1170.9820512820513,510.5794871794873 1275,520 C 1379.0179487179487,529.4205128205127 1480.0051282051284,533.5487179487179 1587,536 C 1693.9948717948716,538.4512820512821 1806.997435897436,539.225641025641 1920,540 C 1920,540 1920,1080 1920,1080 Z" fill="#145110" opacity="0.3"/><path d="M 0,1080 C 0,1080 0,720 0,720 C 90.02564102564105,700.5256410256411 180.0512820512821,681.0512820512821 282,683 C 383.9487179487179,684.9487179487179 497.8205128205127,708.3205128205128 622,718 C 746.1794871794873,727.6794871794872 880.6666666666667,723.6666666666667 984,724 C 1087.3333333333333,724.3333333333333 1159.5128205128206,729.0128205128206 1254,728 C 1348.4871794871794,726.9871794871794 1465.2820512820513,720.2820512820513 1580,718 C 1694.7179487179487,715.7179487179487 1807.3589743589744,717.8589743589744 1920,720 C 1920,720 1920,1080 1920,1080 Z" fill="#145110" opacity="0.39999999999999997"/><path d="M 0,1080 C 0,1080 0,900 0,900 C 123.78461538461539,895.2333333333333 247.56923076923078,890.4666666666666 362,899 C 476.4307692307692,907.5333333333334 581.5076923076922,929.3666666666668 691,908 C 800.4923076923078,886.6333333333332 914.4000000000001,822.0666666666667 1017,835 C 1119.6,847.9333333333333 1210.8923076923077,938.3666666666668 1307,953 C 1403.1076923076923,967.6333333333332 1504.0307692307692,906.4666666666667 1607,885 C 1709.9692307692308,863.5333333333333 1814.9846153846154,881.7666666666667 1920,900 C 1920,900 1920,1080 1920,1080 Z" fill="#145110" opacity="0.49999999999999994"/></svg>